<svg xmlns="http://www.w3.org/2000/svg" viewBox="0 0 32 32">
  <title>Popkorn</title>
  <rect width="32" height="32" rx="7" fill="#6366f1"/>
  <g transform="translate(7.4 6) scale(0.294)" fill="#fff">
    <path d="M4.06 26.515C4.947 22.967 7.406 21 11 21c2.372 0 4.414.848 6 2.508C18.586 21.848 20.628 21 23 21s4.414.848 6 2.508C30.586 21.848 32.628 21 35 21s4.414.848 6 2.508C42.586 21.848 44.628 21 47 21c3.594 0 6.053 1.967 6.94 5.515a2 2 0 0 1 .037.79l-5.218 33.911A8 8 0 0 1 40.852 68H17.148a8 8 0 0 1-7.907-6.784L4.023 27.304a2 2 0 0 1 .037-.79M27 34v24a2 2 0 0 0 4 0V34a2 2 0 0 0-4 0m-10.993.166 2 24a2 2 0 0 0 3.986-.332l-2-24a2 2 0 0 0-3.986.332m22-.332-2 24a2 2 0 0 0 3.986.332l2-24a2 2 0 0 0-3.986-.332m18.062-10.262C54.41 20.042 51.17 18 47 18c-2.207 0-4.242.566-6 1.663C39.242 18.566 37.207 18 35 18s-4.242.566-6 1.663C27.242 18.566 25.207 18 23 18s-4.242.566-6 1.663C15.242 18.566 13.207 18 11 18c-4.169 0-7.41 2.041-9.07 5.572A9 9 0 0 1 9.334 9.007a10 10 0 0 1 10.968-4.74A10.99 10.99 0 0 1 29 0a10.99 10.99 0 0 1 8.7 4.266 10.001 10.001 0 0 1 10.967 4.74Q48.831 9 49 9a9 9 0 0 1 7.07 14.572"/>
  </g>
</svg>
